<svg xmlns="http://www.w3.org/2000/svg" viewBox="0 0 35 33" width="35" height="33">
	<style>
		tspan { white-space:pre }
		.shp0 { fill: #353535 } 
	</style>
	<g id="Группа 9">
		<g id="Группа 10">
			<path id="Forma 1" class="shp0" d="M32.82 17.11L32.82 29.93L7.3 29.93L7.3 17.11L32.82 17.11M34.99 15.02L5.13 15.02L5.13 32.02L34.99 32.02L34.99 15.02ZM26.84 15.02L29.9 17.97C29.88 18.08 29.83 18.18 29.83 18.29C29.83 19.23 30.62 19.99 31.59 19.99C31.71 19.99 31.82 19.94 31.93 19.92L34.99 22.87L34.99 15.02L26.84 15.02ZM28.88 21.83C29.85 21.83 30.64 22.58 30.64 23.52C30.64 24.46 29.85 25.22 28.88 25.22C27.91 25.22 27.12 24.46 27.12 23.52C27.12 22.58 27.91 21.83 28.88 21.83ZM20.06 19.06C23 19.06 25.39 21.06 25.39 23.52C25.39 25.99 23 27.98 20.06 27.98C17.11 27.98 14.73 25.99 14.73 23.52C14.73 21.06 17.11 19.06 20.06 19.06ZM11.24 21.83C12.21 21.83 13 22.58 13 23.52C13 24.46 12.21 25.22 11.24 25.22C10.26 25.22 9.48 24.46 9.48 23.52C9.48 22.58 10.26 21.83 11.24 21.83ZM5.13 22.87L8.18 19.92C8.3 19.95 8.4 19.99 8.52 19.99C9.49 19.99 10.28 19.23 10.28 18.29C10.28 18.18 10.24 18.08 10.21 17.97L13.27 15.02L5.13 15.02L5.13 22.87ZM10.28 28.75C10.28 27.81 9.49 27.05 8.52 27.05C8.4 27.05 8.3 27.1 8.19 27.12L5.13 24.18L5.13 32.02L13.27 32.02L10.22 29.07C10.24 28.96 10.28 28.87 10.28 28.75ZM31.59 27.05C30.62 27.05 29.83 27.81 29.83 28.75C29.83 28.87 29.88 28.96 29.9 29.07L26.84 32.02L34.99 32.02L34.99 24.18L31.93 27.12C31.82 27.1 31.71 27.05 31.59 27.05ZM25.08 8.59C26.05 8.59 26.84 9.35 26.84 10.29C26.84 11.23 26.05 11.98 25.08 11.98C24.11 11.98 23.32 11.23 23.32 10.29C23.32 9.35 24.11 8.59 25.08 8.59ZM3.09 15.02C3.09 13.94 4 13.06 5.13 13.06L6.24 13.06L6.29 12.9L22 4.61L23.2 4.95C23.24 5.05 23.25 5.16 23.31 5.26C23.78 6.08 24.85 6.38 25.7 5.93C25.81 5.88 25.88 5.79 25.96 5.72L27.16 6.06L29.9 10.88L29.55 12.03C29.44 12.07 29.33 12.08 29.23 12.13C28.83 12.34 28.56 12.68 28.42 13.06L33.62 13.06L30.11 6.89L30.12 6.89L26.2 0.01L19.06 3.78L19.06 3.78L7.15 10.06L0.01 13.82L3.09 19.24L3.09 15.02ZM15.12 10.46C13.94 11.08 13.08 12.02 12.61 13.06L22.42 13.06C22.35 12.66 22.23 12.27 22.02 11.91C20.79 9.74 17.7 9.1 15.12 10.46Z" />
		</g>
	</g>
</svg>